HIERARCHY
ROOT Hips
{
  OFFSET 5.72205e-005 65.662 3.42586
  CHANNELS 6 Xposition Yposition Zposition Zrotation Xrotation Yrotation
  JOINT Chest
  {
    OFFSET 0 8.7983 -4.7612
    CHANNELS 3 Zrotation Xrotation Yrotation
    JOINT Chest2
    {
      OFFSET 0 8.0291 0.4195
      CHANNELS 3 Zrotation Xrotation Yrotation
      JOINT Chest3
      {
        OFFSET 0 9.9351 -2.2114
        CHANNELS 3 Zrotation Xrotation Yrotation
        JOINT Neck
        {
          OFFSET 0 22.3885 -0.4656
          CHANNELS 3 Zrotation Xrotation Yrotation
          JOINT Head
          {
            OFFSET -0.0001 12.643 3.4389
            CHANNELS 3 Zrotation Xrotation Yrotation
            End Site
            {
              OFFSET 0.0001 17.6655 0.5274
            }
          }
        }
        JOINT LeftCollar
        {
          OFFSET 2.2603 21.606 7.4023
          CHANNELS 3 Zrotation Xrotation Yrotation
          JOINT LeftShoulder
          {
            OFFSET 13.5163 -1.1332 -5.0146
            CHANNELS 3 Zrotation Xrotation Yrotation
            JOINT LeftElbow
            {
              OFFSET -0.0995 -28.05 -0.2431
              CHANNELS 3 Zrotation Xrotation Yrotation
              JOINT LeftWrist
              {
                OFFSET 0.0679 -23.3996 -0.1402
                CHANNELS 3 Zrotation Xrotation Yrotation
                JOINT LeftFinger1
                {
                  OFFSET 0.7932 -9.069 2.5189
                  CHANNELS 3 Zrotation Xrotation Yrotation
                  JOINT LeftFinger11
                  {
                    OFFSET -0.8272 -3.3923 0.5977
                    CHANNELS 3 Zrotation Xrotation Yrotation
                    JOINT LeftFinger12
                    {
                      OFFSET -0.5649 -2.3158 0.4082
                      CHANNELS 3 Zrotation Xrotation Yrotation
                      End Site
                      {
                        OFFSET -0.4919 -1.6479 0.2673
                      }
                    }
                  }
                }
                JOINT LeftFinger2
                {
                  OFFSET 0.9159 -9.2044 0.2193
                  CHANNELS 3 Zrotation Xrotation Yrotation
                  JOINT LeftFinger21
                  {
                    OFFSET 0.0117 -4.1944 -0.0248
                    CHANNELS 3 Zrotation Xrotation Yrotation
                    JOINT LeftFinger22
                    {
                      OFFSET 0.0071 -2.3249 -0.0142
                      CHANNELS 3 Zrotation Xrotation Yrotation
                      End Site
                      {
                        OFFSET -0.1475 -2.0882 0.0028
                      }
                    }
                  }
                }
                JOINT LeftFinger3
                {
                  OFFSET 0.6113 -8.7231 -2.0637
                  CHANNELS 3 Zrotation Xrotation Yrotation
                  JOINT LeftFinger31
                  {
                    OFFSET -0.1927 -3.8059 -0.2383
                    CHANNELS 3 Zrotation Xrotation Yrotation
                    JOINT LeftFinger32
                    {
                      OFFSET -0.1091 -2.1688 -0.1362
                      CHANNELS 3 Zrotation Xrotation Yrotation
                      End Site
                      {
                        OFFSET -0.2358 -1.9176 -0.0906
                      }
                    }
                  }
                }
                JOINT LeftFinger4
                {
                  OFFSET -0.6151 -8.0947 -3.5641
                  CHANNELS 3 Zrotation Xrotation Yrotation
                  JOINT LeftFinger41
                  {
                    OFFSET -0.4882 -2.341 -0.6462
                    CHANNELS 3 Zrotation Xrotation Yrotation
                    JOINT LeftFinger42
                    {
                      OFFSET -0.3575 -1.7167 -0.4742
                      CHANNELS 3 Zrotation Xrotation Yrotation
                      End Site
                      {
                        OFFSET -0.4187 -1.5237 -0.3496
                      }
                    }
                  }
                }
                JOINT LeftFinger0
                {
                  OFFSET -1.42 -1.8761 1.4223
                  CHANNELS 3 Zrotation Xrotation Yrotation
                  JOINT LeftFinger01
                  {
                    OFFSET -1.1471 -3.4929 2.6334
                    CHANNELS 3 Zrotation Xrotation Yrotation
                    JOINT LeftFinger02
                    {
                      OFFSET -0.823 -2.3 1.6571
                      CHANNELS 3 Zrotation Xrotation Yrotation
                      End Site
                      {
                        OFFSET -0.5822 -1.6914 1.1582
                      }
                    }
                  }
                }
              }
            }
          }
        }
        JOINT RightCollar
        {
          OFFSET -2.2603 21.606 7.4023
          CHANNELS 3 Zrotation Xrotation Yrotation
          JOINT RightShoulder
          {
            OFFSET -13.5187 -1.1334 -5.0155
            CHANNELS 3 Zrotation Xrotation Yrotation
            JOINT RightElbow
            {
              OFFSET 0.0994 -28.0499 -0.2431
              CHANNELS 3 Zrotation Xrotation Yrotation
              JOINT RightWrist
              {
                OFFSET -0.0679 -23.3996 -0.1402
                CHANNELS 3 Zrotation Xrotation Yrotation
                JOINT RightFinger1
                {
                  OFFSET -0.7932 -9.0691 2.5189
                  CHANNELS 3 Zrotation Xrotation Yrotation
                  JOINT RightFinger11
                  {
                    OFFSET 0.8272 -3.3923 0.5977
                    CHANNELS 3 Zrotation Xrotation Yrotation
                    JOINT RightFinger12
                    {
                      OFFSET 0.565 -2.3158 0.4082
                      CHANNELS 3 Zrotation Xrotation Yrotation
                      End Site
                      {
                        OFFSET 0.4919 -1.6479 0.2673
                      }
                    }
                  }
                }
                JOINT RightFinger2
                {
                  OFFSET -0.916 -9.2044 0.2193
                  CHANNELS 3 Zrotation Xrotation Yrotation
                  JOINT RightFinger21
                  {
                    OFFSET -0.0117 -4.1944 -0.0248
                    CHANNELS 3 Zrotation Xrotation Yrotation
                    JOINT RightFinger22
                    {
                      OFFSET -0.0071 -2.3249 -0.0142
                      CHANNELS 3 Zrotation Xrotation Yrotation
                      End Site
                      {
                        OFFSET 0.1475 -2.0882 0.0028
                      }
                    }
                  }
                }
                JOINT RightFinger3
                {
                  OFFSET -0.6113 -8.7231 -2.0637
                  CHANNELS 3 Zrotation Xrotation Yrotation
                  JOINT RightFinger31
                  {
                    OFFSET 0.1927 -3.8059 -0.2383
                    CHANNELS 3 Zrotation Xrotation Yrotation
                    JOINT RightFinger32
                    {
                      OFFSET 0.1091 -2.1688 -0.1362
                      CHANNELS 3 Zrotation Xrotation Yrotation
                      End Site
                      {
                        OFFSET 0.2358 -1.9176 -0.0906
                      }
                    }
                  }
                }
                JOINT RightFinger4
                {
                  OFFSET 0.6151 -8.0947 -3.564
                  CHANNELS 3 Zrotation Xrotation Yrotation
                  JOINT RightFinger41
                  {
                    OFFSET 0.4882 -2.341 -0.6462
                    CHANNELS 3 Zrotation Xrotation Yrotation
                    JOINT RightFinger42
                    {
                      OFFSET 0.3574 -1.7166 -0.4742
                      CHANNELS 3 Zrotation Xrotation Yrotation
                      End Site
                      {
                        OFFSET 0.4187 -1.5237 -0.3496
                      }
                    }
                  }
                }
                JOINT RightFinger0
                {
                  OFFSET 1.4199 -1.8761 1.4221
                  CHANNELS 3 Zrotation Xrotation Yrotation
                  JOINT RightFinger01
                  {
                    OFFSET 1.1472 -3.4929 2.6336
                    CHANNELS 3 Zrotation Xrotation Yrotation
                    JOINT RightFinger02
                    {
                      OFFSET 0.8229 -2.3 1.6571
                      CHANNELS 3 Zrotation Xrotation Yrotation
                      End Site
                      {
                        OFFSET 0.5822 -1.6914 1.1582
                      }
                    }
                  }
                }
              }
            }
          }
        }
      }
    }
  }
  JOINT RightHip
  {
    OFFSET -9.412 3.9771 -0.7758
    CHANNELS 3 Zrotation Xrotation Yrotation
    JOINT RightKnee
    {
      OFFSET -0.7531 -40.938 0
      CHANNELS 3 Zrotation Xrotation Yrotation
      JOINT RightAnkle
      {
        OFFSET 0 -40.1986 0
        CHANNELS 3 Zrotation Xrotation Yrotation
        JOINT RightToe
        {
          OFFSET 0 -4.4182 9.239
          CHANNELS 3 Zrotation Xrotation Yrotation
          End Site
          {
            OFFSET 0 0 6.1981
          }
        }
      }
    }
  }
  JOINT LeftHip
  {
    OFFSET 9.4119 3.9773 -0.7758
    CHANNELS 3 Zrotation Xrotation Yrotation
    JOINT LeftKnee
    {
      OFFSET 0.7532 -40.9383 0
      CHANNELS 3 Zrotation Xrotation Yrotation
      JOINT LeftAnkle
      {
        OFFSET 0 -40.1986 0
        CHANNELS 3 Zrotation Xrotation Yrotation
        JOINT LeftToe
        {
          OFFSET 0 -4.4182 9.239
          CHANNELS 3 Zrotation Xrotation Yrotation
          End Site
          {
            OFFSET 0 0 6.1981
          }
        }
      }
    }
  }
}
MOTION
Frames:	4
Frame Time:	0.0333333
-2.6821 29.7754 -25.8161 2.17416e-008 -20.5271 1.03209e-009 0.145286 19.2105 -0.137834 0.378287 38.4206 -0.364984 0.378283 38.4203 -0.364979 -1.59671 10.4325 -12.8979 5.71461 -37.4417 3.47248 23.6682 -10.3286 -37.8672 60.3604 0.371286 68.7172 -171.036 -54.0941 157.724 2.68869 -8.04471 38.7074 -2.2425e-005 2.11452e-006 -9.36861e-006 2.17625e-005 -1.59841e-006 7.00098e-006 -1.27227e-005 6.82379e-006 -2.10199e-006 -2.2425e-005 2.11452e-006 -9.36861e-006 -0.0128284 0.00233011 8.82471e-005 -1.10551e-005 2.81843e-006 -8.4091e-007 -2.2425e-005 2.11452e-006 -9.36861e-006 -0.016047 0.00299413 0.000858089 -1.00693e-006 -1.03904e-007 1.10605e-006 -2.2425e-005 2.11452e-006 -9.36861e-006 -0.0125671 0.00311776 0.00282727 -3.18055e-015 -3.18055e-015 -0 -2.2425e-005 2.11452e-006 -9.36861e-006 2.17625e-005 -1.59841e-006 7.00098e-006 -1.27227e-005 6.82379e-006 -2.10199e-006 -25.3754 -10.3551 31.8659 -57.3609 -4.59865 -65.128 175.374 -54.8101 -154.78 -2.19416 36.0793 -0.809758 -3.85077e-007 7.29088e-007 -4.80752e-006 -4.08631e-032 -2.38542e-015 -9.81499e-016 3.85077e-007 -7.29088e-007 4.80752e-006 -3.85077e-007 7.29088e-007 -4.80752e-006 0.012963 0.00232255 -9.79699e-005 9.05883e-007 -1.13711e-005 1.04931e-005 -3.85077e-007 7.29088e-007 -4.80752e-006 0.016323 0.00304067 -0.000878104 2.98177e-016 0 2.14936e-015 -3.85077e-007 7.29088e-007 -4.80752e-006 0.0145918 0.00367175 -0.00325891 -1.98785e-016 1.59028e-015 -6.95746e-016 -3.85077e-007 7.29088e-007 -4.80752e-006 -4.08631e-032 -2.38542e-015 -9.81499e-016 3.85077e-007 -7.29088e-007 4.80752e-006 -14.3928 6.91023 -7.176 -162.341 73.4818 165.933 -17.835 45.8999 -3.87373 4.96522e-006 -5.90272e-006 -8.29114e-007 13.5296 7.53075 7.44878 162.82 73.509 -166.347 18.0142 47.5033 4.49166 1.20046e-006 -2.0655e-007 1.12639e-007 
-2.68205 29.7212 -25.6948 1.28854e-008 -19.9353 7.04672e-008 0.145277 18.9542 -0.135755 0.375309 37.9079 -0.358293 0.375305 37.9076 -0.358289 -1.62338 10.3143 -12.9788 5.60007 -35.8829 3.28019 23.0669 -9.41489 -38.6105 60.3734 0.380382 68.7226 -171.029 -54.0854 157.727 2.57092 -8.5358 38.1818 -3.18055e-015 0 1.27222e-014 -3.18055e-015 0 6.36111e-015 -9.54166e-015 9.54166e-015 1.90833e-014 -3.18055e-015 0 1.27222e-014 -0.0128749 0.00233993 8.73974e-005 9.54166e-015 -3.18055e-015 -3.18055e-015 -3.18055e-015 0 1.27222e-014 -0.0160326 0.00299144 0.00085357 -6.61677e-007 2.48001e-006 -2.367e-006 -3.18055e-015 0 1.27222e-014 -0.0126181 0.00312422 0.00283072 -3.18055e-015 -3.18055e-015 3.18055e-015 -3.18055e-015 0 1.27222e-014 -3.18055e-015 0 6.36111e-015 -9.54166e-015 9.54166e-015 1.90833e-014 -24.6822 -9.42467 32.5745 -57.3609 -4.59865 -65.128 175.369 -54.8005 -154.784 -2.5201 35.5175 -0.182145 3.7218e-006 1.01091e-005 2.93421e-006 -1.98785e-016 -7.95139e-016 -1.35422e-015 -2.98177e-016 -7.95139e-016 -1.3418e-015 3.7218e-006 1.01091e-005 2.93421e-006 0.0129562 0.00232388 -9.20687e-005 2.60352e-032 -7.95139e-016 1.87603e-015 3.7218e-006 1.01091e-005 2.93421e-006 0.0162808 0.00303284 -0.000885706 1.62763e-031 1.59028e-015 -5.86415e-015 3.7218e-006 1.01091e-005 2.93421e-006 0.0145828 0.00366823 -0.0032679 1.44428e-006 9.48845e-007 -4.10773e-006 3.7218e-006 1.01091e-005 2.93421e-006 -1.98785e-016 -7.95139e-016 -1.35422e-015 -2.98177e-016 -7.95139e-016 -1.3418e-015 -14.3449 6.57026 -7.25669 -162.337 73.4847 165.93 -17.8357 45.9007 -3.87355 -1.59028e-015 -2.54811e-007 -3.18055e-015 13.4686 7.1917 7.51076 162.815 73.5133 -166.342 18.0059 47.4978 4.49726 1.05934e-030 9.54166e-015 -6.36111e-015 
-2.682 29.6729 -25.5862 4.50102e-008 -19.4024 4.34373e-008 0.145264 18.7233 -0.133885 0.372683 37.4462 -0.352332 0.372679 37.4459 -0.352328 -1.65021 10.1961 -13.0597 5.50364 -34.4749 3.11275 22.5356 -8.58301 -39.27 60.386 0.393226 68.7279 -171.026 -54.0749 157.73 2.46048 -8.97712 37.707 3.18055e-015 -6.36111e-015 6.36111e-015 -0 -1.27222e-014 -0 -0 -1.27222e-014 -0 3.18055e-015 -6.36111e-015 6.36111e-015 -0.0127908 0.00231802 8.43451e-005 9.54166e-015 -6.36111e-015 3.18055e-015 3.18055e-015 -6.36111e-015 6.36111e-015 -0.016103 0.00299571 0.000851911 -1.00562e-006 -9.75428e-007 1.10702e-006 3.18055e-015 -6.36111e-015 6.36111e-015 -0.0125725 0.00311838 0.00282025 6.61887e-007 -6.78671e-007 2.36653e-006 3.18055e-015 -6.36111e-015 6.36111e-015 -0 -1.27222e-014 -0 -0 -1.27222e-014 -0 -24.0678 -8.57695 33.2012 -57.3609 -4.59869 -65.128 175.364 -54.7909 -154.788 -2.8044 35.0088 0.375316 -9.93923e-017 7.95139e-016 9.56651e-016 7.17831e-006 -1.79853e-005 4.11905e-006 5.96354e-016 0 -4.14963e-015 -9.93923e-017 7.95139e-016 9.56651e-016 0.0129379 0.00230788 -8.41796e-005 -9.93923e-017 2.38542e-015 -3.3048e-015 -9.93923e-017 7.95139e-016 9.56651e-016 0.0162859 0.00300582 -0.000867129 4.57833e-006 7.70144e-006 -6.21008e-006 -9.93923e-017 7.95139e-016 9.56651e-016 0.0146094 0.00366156 -0.00326331 9.93923e-017 0 1.9133e-015 -9.93923e-017 7.95139e-016 9.56651e-016 7.17831e-006 -1.79853e-005 4.11905e-006 5.96354e-016 0 -4.14963e-015 -14.3022 6.26406 -7.32899 -162.335 73.4873 165.926 -17.8362 45.9015 -3.87339 -2.03338e-006 2.11891e-006 8.04077e-006 13.414 6.88649 7.56619 162.811 73.5173 -166.338 17.9976 47.4924 4.50281 1.76556e-031 6.36111e-015 -1.59028e-015 
-2.68195 29.6251 -25.4782 -6.57002e-009 -18.8694 -6.87212e-009 0.145247 18.4923 -0.132018 0.370111 36.9843 -0.34643 0.370107 36.984 -0.346425 -1.67721 10.078 -13.1407 5.41348 -33.0632 2.95045 22.0142 -7.74376 -39.9213 60.3985 0.405946 68.7333 -171.022 -54.0644 157.733 2.34613 -9.41771 37.2304 6.36111e-015 6.36111e-015 6.36111e-015 9.97791e-007 -4.36604e-006 -2.03306e-006 6.36111e-015 3.18055e-015 -0 6.36111e-015 6.36111e-015 6.36111e-015 -0.0128065 0.0023196 7.89917e-005 1.76556e-031 3.18055e-015 -3.18055e-015 6.36111e-015 6.36111e-015 6.36111e-015 -0.0160641 0.00299668 0.000845844 1.9769e-005 -3.3357e-007 6.42724e-006 6.36111e-015 6.36111e-015 6.36111e-015 -0.0126071 0.00311869 0.00282671 9.54166e-015 -3.18055e-015 -3.18055e-015 6.36111e-015 6.36111e-015 6.36111e-015 9.97791e-007 -4.36604e-006 -2.03306e-006 6.36111e-015 3.18055e-015 -0 -23.463 -7.72121 33.8183 -57.3609 -4.59868 -65.128 175.36 -54.7812 -154.792 -3.08107 34.4977 0.926631 3.52871e-006 2.67045e-007 5.28317e-007 -1.84487e-032 7.95139e-016 1.32937e-015 -5.93557e-006 2.15923e-006 -8.45316e-006 3.52871e-006 2.67045e-007 5.28317e-007 0.0129865 0.00231148 -9.37565e-005 3.26642e-006 -4.97735e-006 -1.22175e-006 3.52871e-006 2.67045e-007 5.28317e-007 0.0163138 0.00302667 -0.00087826 -1.56803e-006 3.32751e-006 1.04845e-006 3.52871e-006 2.67045e-007 5.28317e-007 0.0146356 0.00369577 -0.00327934 -3.14153e-006 -1.25302e-005 4.28624e-006 3.52871e-006 2.67045e-007 5.28317e-007 -1.84487e-032 7.95139e-016 1.32937e-015 -5.93557e-006 2.15923e-006 -8.45316e-006 -14.2599 5.95757 -7.40105 -162.332 73.4897 165.923 -17.8368 45.9024 -3.8732 4.56992e-007 3.69179e-008 1.76841e-006 13.3596 6.58085 7.62131 162.807 73.5211 -166.334 17.9893 47.487 4.50837 -8.73105e-008 -5.14195e-006 -1.01058e-006 
